<svg id="assign-task" enable-background="new 0 0 300 300" height="512" viewBox="0 0 300 300" width="512" xmlns="http://www.w3.org/2000/svg"><g><path d="m88 238.688c-1.562-1.562-4.094-1.562-5.656 0l-2.828 2.828-2.828-2.828c-1.562-1.562-4.094-1.562-5.656 0s-1.562 4.094 0 5.656l2.828 2.828-2.829 2.828c-1.562 1.562-1.562 4.094 0 5.656.781.781 1.805 1.172 2.828 1.172s2.047-.391 2.828-1.172l2.828-2.828 2.828 2.828c.781.781 1.805 1.172 2.828 1.172s2.047-.391 2.828-1.172c1.562-1.562 1.562-4.094 0-5.656l-2.828-2.828 2.829-2.828c1.562-1.563 1.562-4.094 0-5.656z"/><path d="m223.516 67.172c6.617 0 12-5.383 12-12s-5.383-12-12-12-12 5.383-12 12 5.382 12 12 12zm0-16c2.207 0 4 1.795 4 4s-1.793 4-4 4-4-1.795-4-4 1.793-4 4-4z"/><path d="m205.239 137.172c0 2.362 1.915 4.276 4.276 4.276s4.276-1.915 4.276-4.276-1.915-4.277-4.276-4.277-4.276 1.915-4.276 4.277z"/><path d="m43.516 103.172h88c2.211 0 4-1.791 4-4v-24c0-2.209-1.789-4-4-4h-88c-2.211 0-4 1.791-4 4v24c0 2.209 1.789 4 4 4zm4-24h80v16h-80z"/><path d="m211.516 195.172v-24c0-2.209-1.789-4-4-4h-164c-2.211 0-4 1.791-4 4v24c0 2.209 1.789 4 4 4h164c2.211 0 4-1.791 4-4zm-8-4h-156v-16h156z"/><path d="m243.516 215.172h-120c-2.211 0-4 1.791-4 4v24c0 2.209 1.789 4 4 4h120c2.211 0 4-1.791 4-4v-24c0-2.209-1.789-4-4-4zm-4 24h-112v-16h112z"/><path d="m79.516 119.172c-2.211 0-4 1.791-4 4v24c0 2.209 1.789 4 4 4h84c2.211 0 4-1.791 4-4v-24c0-2.209-1.789-4-4-4zm80 24h-76v-16h76z"/><path d="m195.516 91.172h40v60c0 2.209 1.789 4 4 4s4-1.791 4-4v-64c0-2.209-1.789-4-4-4h-44c-2.211 0-4 1.791-4 4s1.789 4 4 4z"/><path d="m160.688 106.971c.75.75 1.766 1.172 2.828 1.172s2.078-.422 2.828-1.172l16.968-16.971c1.562-1.562 1.562-4.094 0-5.656l-16.969-16.971c-1.5-1.5-4.156-1.5-5.656 0l-16.969 16.971c-1.562 1.562-1.562 4.094 0 5.656zm2.828-31.114 11.312 11.314-11.312 11.314-11.312-11.314z"/><path d="m259.312 180.344-16.969-16.971c-1.5-1.5-4.156-1.5-5.656 0l-16.969 16.971c-1.562 1.562-1.562 4.094 0 5.656l16.969 16.971c.75.75 1.766 1.172 2.828 1.172s2.078-.422 2.828-1.172l16.969-16.971c1.563-1.562 1.563-4.094 0-5.656zm-19.796 14.142-11.312-11.314 11.312-11.314 11.312 11.314z"/></g></svg>